<?xml version="1.0" encoding="UTF-8"?>
<svg id="Layer_2" data-name="Layer 2" xmlns="http://www.w3.org/2000/svg" viewBox="0 0 827.53 122.11">
  <defs>
    <style>
      .cls-1 {
        fill: #2a97db;
      }
    </style>
  </defs>
  <g id="Layer_1-2" data-name="Layer 1">
    <g>
      <path d="M136.41,81.41h14.29c11.25,0,20.61-9.1,20.61-20.35s-9.36-20.35-20.61-20.35h-14.29v40.7ZM150.71,47.62c8.19,0,13.44,6.21,13.44,13.44s-5.09,13.44-13.44,13.44h-7.02v-26.88h7.02ZM174.63,61.05c0,12.01,9.1,20.35,20.35,20.35s20.35-8.24,20.35-20.35-9.1-20.35-20.35-20.35-20.35,8.18-20.35,20.35M182.1,61.05c0-8.4,5.45-13.84,12.88-13.84s12.88,5.55,12.88,13.84-5.45,13.85-12.88,13.85-12.88-5.55-12.88-13.85M218.65,81.41h7.27v-14.76h7.33l6.67,14.76h8.18l-7.78-15.82c4.47-1.93,7.78-6.21,7.78-12.06,0-7.03-4.62-12.82-13.07-12.82h-16.38v40.7ZM233.3,47.62c4.69,0,7.28,2.85,7.28,6.06,0,3.41-2.55,6.41-7.28,6.41h-7.38v-12.47h7.38ZM252.19,81.41h7.27v-40.7h-7.27v40.7ZM284.7,69.76c0,2.85-2.14,4.89-7.28,4.89-4.78,0-8.7-1.12-12.61-3l-.92,6.71c3.66,1.73,8.7,3.05,13.33,3.05,9.62,0,14.71-5.64,14.71-12.26,0-13.95-21.02-9.06-21.02-16.7,0-2.8,2.6-4.89,6.72-4.89,4.48,0,8.86,1.42,11.86,3.11l1.32-6.62c-3.25-1.83-7.58-3.35-12.72-3.35-7.89,0-14.2,4.17-14.2,11.9,0,14.25,20.81,9.57,20.81,17.15M309.84,81.41h14.29c11.25,0,20.61-9.1,20.61-20.35s-9.36-20.35-20.61-20.35h-14.29v40.7ZM324.14,47.62c8.2,0,13.44,6.21,13.44,13.44s-5.09,13.44-13.44,13.44h-7.02v-26.88h7.02ZM378.24,40.7v20.35c0,7.43-4.18,13.49-11.61,13.49s-11.61-5.09-11.61-13.49v-20.35h-7.27v20.35c0,12.98,7.63,20.35,18.88,20.35s18.88-9.1,18.88-20.35v-20.35h-7.27ZM390.04,81.41h7.27v-18.17l15.47,18.17h9.16l-18.12-21.01,18.12-19.69h-8.65l-15.98,18.11v-18.11h-7.27v40.7ZM451.46,81.41v-6.91h-20.46v-9.98h15.57v-6.92h-15.57v-9.98h20.46v-6.91h-27.73v40.7h27.73ZM492.53,64.51v-6.92h-15.63v-9.98h20.46v-6.91h-27.73v40.7h7.27v-16.89h15.63ZM496.96,61.05c0,12.01,9.1,20.35,20.35,20.35s20.35-8.24,20.35-20.35-9.11-20.35-20.35-20.35-20.35,8.18-20.35,20.35M504.43,61.05c0-8.4,5.45-13.84,12.88-13.84s12.88,5.55,12.88,13.84-5.44,13.85-12.88,13.85-12.88-5.55-12.88-13.85M571.31,40.7v20.35c0,7.43-4.17,13.49-11.61,13.49s-11.61-5.09-11.61-13.49v-20.35h-7.27v20.35c0,12.98,7.63,20.35,18.88,20.35s18.88-9.1,18.88-20.35v-20.35h-7.27ZM615.02,81.41h7.27v-40.7h-7.27v29.61l-25.5-29.61h-6.41v40.7h7.27v-28.49l24.64,28.49ZM626.98,81.41h14.29c11.25,0,20.61-9.1,20.61-20.35s-9.36-20.35-20.61-20.35h-14.29v40.7ZM641.28,47.62c8.19,0,13.44,6.21,13.44,13.44s-5.09,13.44-13.44,13.44h-7.03v-26.88h7.03ZM692.21,81.41h7.89l-15.82-40.7h-7.53l-16.49,40.7h7.73l3.97-10.59h16.49l3.76,10.59ZM680.51,48.23l5.6,15.93h-11.6l6.01-15.93ZM728.6,47.62v-6.91h-35.66v6.91h14.2v33.79h7.27v-33.79h14.2ZM732.98,81.41h7.27v-40.7h-7.27v40.7ZM744.33,61.05c0,12.01,9.1,20.35,20.35,20.35s20.35-8.24,20.35-20.35-9.1-20.35-20.35-20.35-20.35,8.18-20.35,20.35M751.8,61.05c0-8.4,5.45-13.84,12.88-13.84s12.88,5.55,12.88,13.84-5.45,13.85-12.88,13.85-12.88-5.55-12.88-13.85M820.26,81.41h7.27v-40.7h-7.27v29.61l-25.5-29.61h-6.41v40.7h7.27v-28.49l24.64,28.49Z"/>
      <path class="cls-1" d="M101.51,61.06C101.51,26.41,73.58,0,39.84,0H0v17.57l32.38,8.23c26.27,6.67,53.71,27.63,61.34,48.67,2.01,5.54,2.24,10.36,1,14.31,4.32-8.32,6.79-17.74,6.79-27.73M0,20.11v102h39.84c21.4,0,40.45-11,51.53-27.65-5.84,6.13-17.5,8.05-32.58,4.22l-33.4-8.49L0,20.11Z"/>
    </g>
  </g>
</svg>